<svg width="20" height="20" viewBox="0 0 20 20" fill="none" xmlns="http://www.w3.org/2000/svg">
<path fill-rule="evenodd" clip-rule="evenodd" d="M6.75 6C6.75 5.13805 7.09241 4.3114 7.7019 3.7019C8.3114 3.09241 9.13805 2.75 10 2.75C10.862 2.75 11.6886 3.09241 12.2981 3.7019C12.9076 4.3114 13.25 5.13805 13.25 6V8H6.75V6ZM4.25 8.094V6C4.25 5.2449 4.39873 4.49719 4.68769 3.79957C4.97666 3.10195 5.4002 2.46807 5.93414 1.93414C6.46807 1.4002 7.10195 0.976657 7.79957 0.687693C8.49719 0.398728 9.2449 0.25 10 0.25C10.7551 0.25 11.5028 0.398728 12.2004 0.687693C12.8981 0.976657 13.5319 1.4002 14.0659 1.93414C14.5998 2.46807 15.0233 3.10195 15.3123 3.79957C15.6013 4.49719 15.75 5.2449 15.75 6V8.094C16.3942 8.26033 16.9648 8.63606 17.3721 9.16212C17.7794 9.68817 18.0003 10.3347 18 11V17C18 17.7956 17.6839 18.5587 17.1213 19.1213C16.5587 19.6839 15.7956 20 15 20H5C4.20435 20 3.44129 19.6839 2.87868 19.1213C2.31607 18.5587 2 17.7956 2 17V11C1.99972 10.3347 2.2206 9.68817 2.62791 9.16212C3.03521 8.63606 3.60582 8.26033 4.25 8.094ZM10 12.25C10.4641 12.25 10.9092 12.4344 11.2374 12.7626C11.5656 13.0908 11.75 13.5359 11.75 14C11.75 14.4641 11.5656 14.9092 11.2374 15.2374C10.9092 15.5656 10.4641 15.75 10 15.75C9.53587 15.75 9.09075 15.5656 8.76256 15.2374C8.43437 14.9092 8.25 14.4641 8.25 14C8.25 13.5359 8.43437 13.0908 8.76256 12.7626C9.09075 12.4344 9.53587 12.25 10 12.25Z" fill="#9D9D9D"/>
</svg>
