<svg width="60" height="20" viewBox="0 0 60 20" fill="none" xmlns="http://www.w3.org/2000/svg">
<path d="M29.9664 5.80396L27.902 12.3161L25.8543 5.80396H23.3071L26.0041 13.5433C26.2871 14.3451 27.0363 14.8686 27.902 14.8686C28.3348 14.8686 28.7344 14.7377 29.0674 14.5087C29.4003 14.2796 29.6667 13.936 29.7999 13.5433L32.4969 5.80396H29.9664Z" fill="white"/>
<path d="M41.0874 7.14572C40.2051 6.13126 39.023 5.60767 37.5081 5.60767C36.1096 5.60767 34.9609 6.06581 34.0453 6.96573C33.1296 7.86566 32.6968 8.99465 32.6968 10.3691C32.6968 11.7271 33.1463 12.8561 34.0453 13.7397C34.9443 14.6233 36.1263 15.0814 37.5414 15.0814C38.5902 15.0814 39.5225 14.8196 40.3382 14.3124C41.154 13.7888 41.72 13.0198 42.053 12.0053H39.5724C39.4226 12.3653 39.1562 12.6434 38.79 12.8398C38.4237 13.0361 38.0075 13.1507 37.5414 13.1507C36.8921 13.1507 36.3427 12.9707 35.9099 12.5943C35.477 12.218 35.2106 11.6781 35.144 10.9745H42.2195C42.336 9.43643 41.9697 8.16018 41.0874 7.14572ZM35.2606 9.22372C35.4271 8.71649 35.6768 8.30744 36.0597 8.01292C36.4426 7.7184 36.9087 7.55477 37.4914 7.55477C38.0575 7.55477 38.5236 7.70203 38.9065 8.01292C39.2894 8.3238 39.5391 8.71649 39.6723 9.22372H35.2606Z" fill="white"/>
<path d="M48.7955 5.80396C47.447 5.80396 46.4814 6.19665 45.9154 7.39109V5.80396H43.5181V14.8686H45.9154V10.8272C45.9154 9.82907 46.1818 9.10913 46.6978 8.66735C47.2139 8.24193 47.8965 8.04558 48.7456 8.04558H49.3282V5.80396H48.7955Z" fill="white"/>
<path d="M57.0863 5.80396L54.7889 11.1053L52.5081 5.80396H49.9609L53.5236 13.6578L51.709 17.6666H54.2561L59.6668 5.7876H57.0863V5.80396Z" fill="white"/>
<path d="M19.7884 11.5737L19.4788 10.8243C19.2551 10.2914 19.2551 9.69192 19.4788 9.17569L19.7884 8.42631C20.2013 7.46045 19.8228 6.32806 18.9283 5.79517L18.7562 5.69525L18.1025 5.31224C17.6896 5.06245 17.38 4.69609 17.2251 4.24646C17.1907 4.17985 17.1735 4.11324 17.1563 4.02997L16.9155 3.11407C16.6574 2.14821 15.7628 1.4821 14.765 1.54871L13.5952 1.63197C13.0791 1.66528 12.5802 1.49875 12.1673 1.18235L11.2556 0.449625C10.8943 0.149875 10.4298 0 9.9825 0C9.53522 0 9.07072 0.149875 8.69225 0.449625L7.78047 1.18235C7.36759 1.5154 6.86869 1.66528 6.35259 1.63197L5.18276 1.54871C4.18496 1.4821 3.29038 2.13156 3.03233 3.11407L2.79149 4.02997C2.65386 4.56286 2.30979 5.01249 1.8453 5.29559L1.01954 5.77852C0.124961 6.31141 -0.23631 7.4438 0.159368 8.40966L0.469029 9.15903C0.692673 9.69192 0.692673 10.2914 0.469029 10.8077L0.176571 11.5737C-0.23631 12.5562 0.124961 13.6719 1.03674 14.2048L1.8625 14.7044C2.32699 14.9875 2.67106 15.4371 2.80869 15.97L3.04954 16.8859C3.30759 17.8518 4.20216 18.5179 5.19996 18.4513L6.36979 18.368C6.88589 18.3347 7.40199 18.5012 7.79767 18.8177L8.70945 19.5504C9.4664 20.1499 10.533 20.1499 11.29 19.5504L11.7372 19.184C12.3222 18.7177 12.9587 18.6511 13.7845 18.8676L17.3111 19.9833C17.3284 19.9833 17.3628 19.9833 17.3628 19.95V16.2698C17.3628 15.6703 17.6724 15.1041 18.1713 14.7544L18.7218 14.3714C18.7906 14.3214 18.8767 14.2548 18.9455 14.2048C18.9627 14.1882 18.9799 14.1715 19.0143 14.1715L19.1175 14.1049C19.668 13.7052 19.9777 13.0558 19.9777 12.4063C19.9433 12.1066 19.8917 11.8401 19.7884 11.5737ZM11.9437 13.9717C11.8061 14.3714 11.5308 14.7211 11.1867 14.9542C10.8427 15.1873 10.4298 15.3206 9.9825 15.3206C9.08793 15.3206 8.31377 14.771 8.02132 13.9717L5.21716 6.09492H7.84928L9.9653 12.7227L12.0985 6.09492H14.7306L11.9437 13.9717Z" fill="url(#paint0_linear_3676_210)"/>
<defs>
<linearGradient id="paint0_linear_3676_210" x1="9.98884" y1="10" x2="18.4279" y2="19.9907" gradientUnits="userSpaceOnUse">
<stop stop-color="#FF6D75"/>
<stop offset="1" stop-color="#9C86FF"/>
</linearGradient>
</defs>
</svg>
