<svg width="13" height="13" viewBox="0 0 13 13" fill="none" xmlns="http://www.w3.org/2000/svg">
<path d="M6.5 8L6.17191 8.3773C6.36005 8.5409 6.63995 8.5409 6.82809 8.3773L6.5 8ZM3.26159 8.41369C3.52723 8.33826 3.68142 8.06176 3.60598 7.79612C3.53054 7.53048 3.25405 7.3763 2.98841 7.45173L3.125 7.93271L3.26159 8.41369ZM10.0116 7.45173C9.74595 7.3763 9.46946 7.53048 9.39402 7.79612C9.31858 8.06176 9.47277 8.33826 9.73841 8.41369L9.875 7.93271L10.0116 7.45173ZM9.5 3.43478H9C9 3.80489 8.85483 4.24896 8.59151 4.73553C8.33182 5.2154 7.97925 5.69655 7.61646 6.13031C7.25507 6.56241 6.89223 6.93721 6.6191 7.2044C6.48284 7.3377 6.36967 7.44348 6.29115 7.51541C6.25191 7.55136 6.22137 7.57881 6.20101 7.59697C6.19082 7.60604 6.18319 7.61279 6.17827 7.61712C6.17582 7.61928 6.17405 7.62083 6.17298 7.62177C6.17244 7.62223 6.17209 7.62254 6.17191 7.6227C6.17182 7.62278 6.17177 7.62282 6.17177 7.62282C6.17177 7.62282 6.17181 7.62279 6.17181 7.62279C6.17185 7.62275 6.17191 7.6227 6.5 8C6.82809 8.3773 6.82817 8.37723 6.82826 8.37715C6.82831 8.37711 6.82841 8.37702 6.8285 8.37694C6.82868 8.37679 6.82891 8.37659 6.82919 8.37635C6.82973 8.37587 6.83046 8.37523 6.83137 8.37444C6.83319 8.37285 6.83572 8.37063 6.83894 8.3678C6.84538 8.36213 6.85459 8.35399 6.86638 8.34348C6.88995 8.32247 6.92387 8.29196 6.96667 8.25276C7.05221 8.17439 7.17341 8.06108 7.3184 7.91924C7.60777 7.63616 7.99493 7.2365 8.38354 6.77186C8.77075 6.30889 9.16818 5.77101 9.47099 5.21148C9.77017 4.65865 10 4.04293 10 3.43478H9.5ZM6.5 8C6.82809 7.6227 6.82815 7.62275 6.82819 7.62279C6.82819 7.62279 6.82823 7.62282 6.82823 7.62282C6.82823 7.62282 6.82818 7.62278 6.82809 7.6227C6.82792 7.62254 6.82756 7.62223 6.82702 7.62177C6.82595 7.62083 6.82418 7.61928 6.82173 7.61712C6.81681 7.61279 6.80918 7.60604 6.79899 7.59697C6.77863 7.57881 6.74809 7.55136 6.70885 7.51541C6.63034 7.44348 6.51716 7.3377 6.3809 7.2044C6.10777 6.93721 5.74493 6.56241 5.38354 6.13031C5.02075 5.69655 4.66818 5.2154 4.40849 4.73553C4.14517 4.24896 4 3.80489 4 3.43478H3.5H3C3 4.04293 3.22983 4.65865 3.52901 5.21148C3.83182 5.77101 4.22925 6.30889 4.61646 6.77186C5.00507 7.2365 5.39223 7.63616 5.6816 7.91924C5.82659 8.06108 5.94779 8.17439 6.03334 8.25276C6.07613 8.29196 6.11005 8.32247 6.13362 8.34348C6.14541 8.35399 6.15462 8.36213 6.16106 8.3678C6.16428 8.37063 6.16681 8.37285 6.16863 8.37444C6.16954 8.37523 6.17027 8.37587 6.17081 8.37635C6.17109 8.37659 6.17132 8.37679 6.1715 8.37694C6.17159 8.37702 6.17169 8.37711 6.17174 8.37715C6.17183 8.37723 6.17191 8.3773 6.5 8ZM3.5 3.43478H4C4 2.10039 5.10887 1 6.5 1V0.5V0C4.57742 0 3 1.5275 3 3.43478H3.5ZM6.5 0.5V1C7.89113 1 9 2.10039 9 3.43478H9.5H10C10 1.5275 8.42258 0 6.5 0V0.5ZM12.5 10H12C12 10.171 11.9189 10.3792 11.6776 10.6169C11.4345 10.8564 11.0571 11.0951 10.5503 11.3062C9.53906 11.7276 8.10734 12 6.5 12V12.5V13C8.20637 13 9.77465 12.7128 10.9349 12.2293C11.514 11.988 12.0153 11.688 12.3794 11.3293C12.7453 10.9689 13 10.5194 13 10H12.5ZM6.5 12.5V12C4.89266 12 3.46094 11.7276 2.44967 11.3062C1.94294 11.0951 1.56551 10.8564 1.3224 10.6169C1.08106 10.3792 1 10.171 1 10H0.5H0C0 10.5194 0.254729 10.9689 0.620618 11.3293C0.984745 11.688 1.48599 11.988 2.06505 12.2293C3.22535 12.7128 4.79363 13 6.5 13V12.5ZM0.5 10H1C1 9.78858 1.12754 9.51412 1.52353 9.20889C1.9145 8.90752 2.50584 8.62831 3.26159 8.41369L3.125 7.93271L2.98841 7.45173C2.15958 7.68711 1.43842 8.0119 0.913037 8.41687C0.392669 8.81797 0 9.35215 0 10H0.5ZM9.875 7.93271L9.73841 8.41369C10.4942 8.62831 11.0855 8.90752 11.4765 9.20889C11.8725 9.51412 12 9.78858 12 10H12.5H13C13 9.35215 12.6073 8.81797 12.087 8.41687C11.5616 8.0119 10.8404 7.68711 10.0116 7.45173L9.875 7.93271Z" fill="white"/>
</svg>
