<svg width="20" height="20" viewBox="0 0 20 20" fill="none" xmlns="http://www.w3.org/2000/svg">
<path d="M16.6667 2.5H3.33333C1.5 2.5 0 4 0 5.83333V14.1667C0 16 1.5 17.5 3.33333 17.5H16.6667C18.5 17.5 20 16 20 14.1667V5.83333C20 4 18.5 2.5 16.6667 2.5ZM18 7.33333L11.4167 11.75C11 12 10.5 12.1667 10 12.1667C9.5 12.1667 9 12 8.58333 11.75L2 7.33333C1.66667 7.08333 1.58333 6.58333 1.83333 6.16667C2.08333 5.83333 2.58333 5.75 3 6L9.58333 10.4167C9.83333 10.5833 10.25 10.5833 10.5 10.4167L17.0833 6C17.5 5.75 18 5.83333 18.25 6.25C18.4167 6.58333 18.3333 7.08333 18 7.33333Z" fill="#9D9D9D"/>
</svg>
