<svg width="248" height="250" viewBox="0 0 248 250" fill="none" xmlns="http://www.w3.org/2000/svg">
<path d="M51.2888 70.9851C74.095 47.9972 96.69 25.3779 119.058 2.5366C122.507 -0.984927 124.451 -0.447101 127.576 2.74765C140.91 16.3794 154.553 29.7095 167.895 43.3338C171.405 46.9171 173.732 47.0729 177.38 43.2923C190.621 29.5681 204.297 16.2635 217.612 2.60885C220.802 -0.662093 222.963 -1.02929 226.226 2.49121C232.195 8.93224 238.469 15.1032 244.832 21.16C247.613 23.8071 247.821 25.6206 244.97 28.4601C221.917 51.4253 198.957 74.4845 176.084 97.6292C173.195 100.552 171.341 99.9901 168.748 97.3739C154.797 83.2971 140.724 69.3404 126.676 55.3588C125.644 54.3313 124.482 53.4348 123.031 52.1751C115.754 59.4704 108.646 66.5542 101.586 73.6852C93.8242 81.5251 86.0297 89.3353 78.4078 97.3098C75.4712 100.382 73.2331 100.714 70.1298 97.3965C64.0006 90.8448 57.5635 84.5777 51.164 78.2842C48.7257 75.8863 48.0668 73.6864 51.2888 70.9851Z" fill="#A1EE4F"/>
<path d="M185.988 187.535C166.665 207.126 147.53 226.346 128.661 245.823C125.122 249.477 122.936 249.317 119.637 245.785C113.768 239.499 107.647 233.432 101.371 227.552C98.2706 224.647 98.5081 222.71 101.426 219.816C114.973 206.381 128.199 192.619 141.835 179.277C145.797 175.4 145.411 173.036 141.661 169.347C128.327 156.23 115.405 142.695 102.098 129.55C98.7274 126.221 98.1268 124.006 101.868 120.522C108.297 114.536 114.356 108.146 120.428 101.789C122.926 99.1729 124.903 99.1551 127.458 101.726C150.257 124.672 173.086 147.589 196.016 170.404C198.882 173.256 198.597 175.219 195.81 177.752C192.491 180.767 189.437 184.074 185.988 187.535Z" fill="#A1EE4F"/>
<path d="M11.4315 237.612C8.24237 234.43 5.48757 231.339 2.36033 228.687C-0.873918 225.945 -0.668345 223.869 2.26801 220.958C16.2102 207.139 29.9937 193.159 43.8212 179.224C52.5114 170.466 61.2747 161.778 69.8051 152.866C72.7345 149.806 74.8248 149.231 77.9928 152.635C83.9747 159.065 90.2479 165.235 96.6053 171.297C99.5303 174.087 99.7595 176.044 96.7259 179.071C73.6985 202.05 50.7978 225.156 27.944 248.308C25.6491 250.633 24.0605 250.508 21.9536 248.264C18.6289 244.721 15.1283 241.344 11.4315 237.612Z" fill="#A1EE4F"/>
</svg>
